<?xml version="1.0" encoding="utf-8"?>
<!-- Generator: Adobe Illustrator 22.0.1, SVG Export Plug-In . SVG Version: 6.00 Build 0)  -->
<svg version="1.1" id="Ebene_1" xmlns="http://www.w3.org/2000/svg" xmlns:xlink="http://www.w3.org/1999/xlink" x="0px" y="0px"
	 viewBox="0 0 256 329" style="enable-background:new 0 0 256 329;" xml:space="preserve">
<style type="text/css">
	.st0{fill:#FFFFFF;}
</style>
<g>
	<path class="st0" d="M76.5,203.4c-9.7-7.7-20.2-15-27.3-25.4c-15-18.3-26.5-39.4-34.3-61.6c-4.8-14.4-6.4-29.9-12.5-43.8
		c-6.4-10.1,1.1-21.1,12.2-24.3c4.9-0.9,13.6-5.6,3.1-2.3c-9.4,6.9-10.3-6.2-0.7-7.1c6.6-0.9,9-6.2,6.7-11.1
		c-7-4.6,17.1-9.6,4.9-16.5C16-2.3,46.3-4.9,38.8,10.6C37,22.5,60,8.4,54.7,22.1c5.4,6.6,20.3,1.5,19.9,10.8
		c7.9,0.5,10.6,7.2,18,7.7c7.7,3.5,21.6,6.2,24.2,14.8c-7.6,6-25.2-12.4-26.1,4.2c2.3,24.6,1.7,50,10.7,73.5
		c4.3,14.2,14.6,25.4,23.9,36.4c8.9,10.8,21,18.5,33.4,24.9c10.8,5.1,22.5,8.5,34.3,10.6c4.8-3.7,13.2-17.3,20.7-11.5
		c0.4,6.4-14.8,13.5-0.7,12.8c8.3-2.5,14,6.4,20.8-1.6c6.3,7.4,26.1-4.7,21.6,10.5c-6,3.9-14.9,1.5-20.9,6.9c-10-5-17.9,4.5-29,3.3
		c-12.3,2.2-24.7,3.1-37.2,3.1c-20.4-1.6-41.2-2.3-60.6-9.4C96.8,215.8,86.1,209.6,76.5,203.4L76.5,203.4z M93.7,210.8
		c10.7,4.6,21.1,9.5,32.8,10.9c18.6,2.6,37.7,6.6,56.3,2.9c-8.4-3.8-17.1,1.5-25.5-2.7c-10.1,2.2-20.9-0.6-31.1-1.9
		c-11.6-5.2-24.2-8.7-35.1-15.5c-13.6-5,7,6.4,10.7,7.3c8.5,4.8-9.4-2.5-11.9-4.5c-7.1-4-8-3.2-0.7,0.9
		C90.7,209.2,92.2,210.1,93.7,210.8L93.7,210.8z M73.4,196.5c10.3,3.8,0-7.3-4.8-6.6c-2.1-3.6-8-5.9-3.8-7.9
		c-7.5,2.6-7.9-9.9-11.4-8.1c-8-2.5-3.1-11.4-12.6-16.9c-0.9-5.8-9.4-10.7-12.1-19.4c-1.2-4.4-9.7-17.2-4.5-5.3
		c4.4,11.4,12.2,21.2,18.7,31c5,9.3,11,19,20.1,24.9C66.1,191,69.1,195.5,73.4,196.5L73.4,196.5z M43.6,163.8
		C44,162.2,45.5,167.1,43.6,163.8L43.6,163.8z M85.8,201.1C88.1,200,82.5,199.8,85.8,201.1L85.8,201.1z M91.4,203.1
		C90.8,200.3,88.9,204.7,91.4,203.1L91.4,203.1z M98.4,206C101.8,202.8,93.3,204,98.4,206L98.4,206z M110.5,212.7
		C112.5,209.7,104,211.6,110.5,212.7L110.5,212.7z M87.4,196.6C92.6,193.3,80.6,196.6,87.4,196.6L87.4,196.6z M92.6,199.3
		C92.5,197.5,90.8,200,92.6,199.3L92.6,199.3z M119,215.7c4.2,2.7,24.7,5.9,11.9,1.1C128.7,217.2,107.1,210.7,119,215.7L119,215.7z
		 M77.2,183.1C76.7,181.3,70.6,181.2,77.2,183.1L77.2,183.1z M89.4,190.3C92.6,188,82.8,188.6,89.4,190.3L89.4,190.3z M99.7,196.6
		C104.3,194.9,92.3,194.9,99.7,196.6L99.7,196.6z M72.2,177.7c5,3.8,20,0.5,7.6-2.3c-5.7-3-18.4-5.1-9.7,1.8L72.2,177.7L72.2,177.7z
		 M106.7,198.8C108.8,195.3,98,196.8,106.7,198.8L106.7,198.8z M96.2,190.4c12.1,3.4-10.2-7.7-3-1.3l1.6,0.7L96.2,190.4L96.2,190.4z
		 M117.3,202.6C128.8,202.7,106.9,201,117.3,202.6L117.3,202.6z M67.7,171C67.3,168.9,64.9,171.2,67.7,171L67.7,171z M136.7,213.5
		C137.1,209.7,133,216.4,136.7,213.5L136.7,213.5z M87.4,183.1C86.7,181,83.8,183,87.4,183.1L87.4,183.1z M68.8,169.7
		C75.4,169.3,59.8,166.8,68.8,169.7L68.8,169.7z M46.8,155.5C46,152.3,39.7,149.8,46.8,155.5L46.8,155.5z M104.5,192.1
		C103.3,190.7,104,192.4,104.5,192.1L104.5,192.1z M140.4,214.1C140.3,212,138.5,214.9,140.4,214.1L140.4,214.1z M101.4,188.8
		C102,186.1,95.7,188,101.4,188.8L101.4,188.8z M74.6,171.9C79.5,171.3,66.7,168.5,74.6,171.9L74.6,171.9z M119.9,200
		C127.5,196.9,112.4,198.5,119.9,200L119.9,200z M96.3,184c8.8,1.1-10.5-6-1.9-0.6L96.3,184L96.3,184z M127,202.9
		c8.2-4.9,5.5,11.5,14,1.4c8.3-6.1-7.2,7.5,3.1,1.1c7.4-5,18.4,2.4,25.4,4.7c5-0.2,9.8,4.3,15,1.5c9.8-2.7-19.3-3.9-11.6-8.6
		c-9,2.6-15.7-3.1-20.1-8.9c-10.1-2.3-21.8-7.5-26.8-16.5c-2.1-3.4,3,0.5-1.8-5c-6.1-5.4-9.1-11.6-13.2-18.2
		c-4.9-2.6-5.5-10.3-6-0.3c0-6.3-5.9-10.6-7.3-8.8c0-6.1,6.4-3,1.9-7.5c-1-6.3-4.1-12.9-5.1-20c-1.5-3.4-0.2-10.8-5-3
		c-1.8,8.2-0.6-10.1,2.2-4.1c3.6-6.2-1.3-5.4-1.5-4.6c2.3-5.2,1.5-12.6-0.6-9.8c1.2-5.5,2-20.3-1.9-17.7c2.3-5.8,4.4-26.4-5.7-18.5
		c-4.1,0.1-11.2,1.5-14.5,3.2c10.5,5.8-1.1,2.1-5.3,1.2c-0.6,5.4-4.8,3-10.1,3.1c8.5,1-4.1,8.7-9,5.7c-6.3,3,5.4,10.5,0.1,12.9
		c0.7,3.5-9.7-1.3-8.8,6.8c-6.1-2.6-0.8,9.6,2.2,5.5c10.4,2.8,7.3,9.2,7.6,15.3c-1.7,3.6-8.4-8.3-1.5-7.8c-5.4-8.8-6-3.2-10.5,0.9
		c-1,0.3,11.5,5.8,3.6,8.6c6.9,1.1,7.1,7.1,8.5,11c4.2,4.3,3.3-4.8,8.3,0.4c-3.2-4.7-16.7-13.1-5.8-10.4c-0.1-4.7-2-8.4,1.4-8.4
		c3.3-6-3.5,14.8,4,7.2c2.1-0.9,2.6-6,6.3,0.5c5.4,5.3,1.9,9.2-5.7,4.3c1.4,4.6,10.2,6.3,8.5,13.5c1.8,6.4,4.2,4,6.4,3.6
		c1.7,6.2,2.6,1.6,2.7-1.3c7.7,1.6,5.9,6.2,8.3,9.4c5.3,2.4-7.6-16.2,1.5-5.6c9.6,8.7,3.6,12.3-5,10.9c5.4-0.4,7.2,7.4,14,7.1
		c6.2,3,10.4,14.3-0.3,9.6c-3.7-3.3-16.8-7.5-6.1-1.1c9.9,4.6,17.8,7.3,27.3,13.1c6.8,4.9,9.8,10.5,12.4,11.6
		c-5.7,2.7-17.3-2.2-8.7-3.7c-5.4-1-11.4-3.7-6.3,3c4.4,3.6,15.5,3.3,17.5,3.7c-1.7,3.7-4.6,4,0.1,4.3
		C119.7,200.9,126.5,201.3,127,202.9L127,202.9z M116.4,172.9c-3.2-3.3-4-9.5-0.6-4.1C117.6,169.5,121.4,178.9,116.4,172.9
		L116.4,172.9z M150.9,194.9C152.9,194.7,151,196.3,150.9,194.9L150.9,194.9z M111.4,164.8C111.3,159.8,112.6,168.7,111.4,164.8
		L111.4,164.8z M108,160.2C104,152.5,113,162.4,108,160.2L108,160.2z M66.4,131.5C68.7,130.9,67.5,135.5,66.4,131.5L66.4,131.5z
		 M99.5,149.4C100.9,144,101.2,153.9,99.5,149.4L99.5,149.4z M76.1,133.2C74.4,130.2,79.5,135.9,76.1,133.2L76.1,133.2z M96.2,139.6
		c-3.8-8.4,2.7-4.6,0.8,1.4L96.2,139.6L96.2,139.6z M61.5,116.5c-1.7-2.8-4.5-10.9-3.6-13.4c0.8,4,8.6,17.4,3.8,5.5
		c-5.3-9.9,6.3,3.2,7.5,5.7c0.6,2.5-3.3-0.7-0.7,5.1C63.9,112.9,65.8,123.1,61.5,116.5L61.5,116.5z M50.8,109.1
		C51.3,102.7,53.3,113.5,50.8,109.1L50.8,109.1z M55.7,110.8C58,105.9,59.6,117.5,55.7,110.8L55.7,110.8z M44.1,101.8
		c-4-4-6.9-7.6,0.2-2.5c2.7,0.1-6-8.3,0.7-2.7C52,98,48.4,108.2,44.1,101.8L44.1,101.8z M50.2,101.7
		C52.5,99.4,51.4,103.9,50.2,101.7L50.2,101.7z M53.9,102.9C50.4,96.3,58.2,105.6,53.9,102.9L53.9,102.9z M46.5,95.8
		c-11.6-10.3,14.5,5.4,1.9,1.9L46.5,95.8L46.5,95.8z M79.7,115c-5-3-1.3-21.2,0.4-8.7c4.9-1.6-0.3,6.4,3.4,6.3
		C82.8,117.7,81.2,119.5,79.7,115L79.7,115z M91.9,122.3C92.4,116.8,93,126,91.9,122.3L91.9,122.3z M89.8,120.2
		C90.3,117.8,89.8,122.9,89.8,120.2L89.8,120.2z M48.7,92.4c-7.4-10.3,21.6,10.4,4.8,2.6C51.7,94.5,49.6,94.3,48.7,92.4L48.7,92.4z
		 M72.4,104.9C71.7,96.3,73.9,106.3,72.4,104.9L72.4,104.9z M90.3,116.4C91.7,111.5,90.4,119.7,90.3,116.4L90.3,116.4z M49.9,88.5
		c4.4-0.9,18.3,7.8,5.6,2.5C54,89.4,51,90.1,49.9,88.5L49.9,88.5z M87.9,107.4c0.5-8.8,2.6-5.3,0,1.3L87.9,107.4L87.9,107.4z
		 M53.2,85.4c1.8-2.6-4.8-11.9,0.9-3.3c2.5,2,7.2,3.3,3,4.1C63.7,91.9,55.6,87.7,53.2,85.4L53.2,85.4z M86,104.6
		C87.2,94.5,87.1,110.5,86,104.6L86,104.6z M49.4,76.1C50.8,75.5,50.1,77.9,49.4,76.1L49.4,76.1z M58,81.2
		C60.2,76.5,62,86.3,58,81.2L58,81.2z M82.1,94.6C82.1,92.8,82.6,97.2,82.1,94.6L82.1,94.6z M80.7,91.5
		C77.4,83.2,83.8,95.9,80.7,91.5L80.7,91.5z M78.6,86.1C78.1,82.7,80.6,90.4,78.6,86.1L78.6,86.1z M82,80.6c-2.3-4,2.9-17.9,3.5-9.3
		c-2.4,6.7-0.7,10.4,1,1.5C89.6,65.8,85.8,86.7,82,80.6L82,80.6z M85.4,60.1C86.4,58.9,85.7,61.6,85.4,60.1L85.4,60.1z M79.7,173.3
		C78.3,172.1,79.9,174.1,79.7,173.3L79.7,173.3z M91.5,179.3c6.6,1.7,6.6-1,0.6-1.8c-3.2-3-13.3-6.1-4.3-0.4
		C88.5,178.6,90.4,178.6,91.5,179.3L91.5,179.3z M68.2,163.8c3.6,2.7,13.7,7.7,5.2,1c2.9-3.3-5.5-5.1-2.7-7.3
		c-7-4.3-5.6-3.9-0.6-3.8c-8.5-3.8,1.2-3.5,0.8-5.4c-3.3-0.6-16.2-5.8-8.6,0.4c-7.7-3.9-1.8,1.5-4.2,0.9c-7.9-2.2,7,6-1.3,4
		c4.5,3.6,12.2,9.2,1.9,3.8C57.3,159.3,66,162.3,68.2,163.8L68.2,163.8z M80.5,170.9C95.6,175.7,73.1,165,80.5,170.9L80.5,170.9z
		 M143.9,209.3C144.1,206.3,141.8,211.8,143.9,209.3L143.9,209.3z M150.4,212c3.5-3.4,0.1,5.4,5.8-0.8c0.1-4.4-0.2-7-6.4-1.7
		C148,210.5,147.2,214.6,150.4,212L150.4,212z M47,147.1C46,142.9,39.5,142.9,47,147.1L47,147.1z M54,151.7
		C51.4,147.4,44.8,147.8,54,151.7L54,151.7z M93.5,175.5c3.9,3.4,17.7,2.5,4.7,0.4C96.3,173.1,86,173.8,93.5,175.5L93.5,175.5z
		 M147.9,209.1C153.9,204.1,142.2,211.3,147.9,209.1L147.9,209.1z M160.3,217.6C160.3,216,157.7,218.3,160.3,217.6L160.3,217.6z
		 M160.3,215.4C166.9,208.4,153.9,215.8,160.3,215.4L160.3,215.4z M29.9,132.8c-5.6-8-3.5-11.6-8.9-18.1c-1-5-9.3-16.3-4.3-4.3
		C21.3,117.3,22.7,128.2,29.9,132.8L29.9,132.8z M158.2,213.1C170.4,205.3,153.3,209.7,158.2,213.1L158.2,213.1z M167.5,216.8
		C173.6,211.6,163.7,215.7,167.5,216.8L167.5,216.8z M45,138.2C46.7,135.7,40.5,137.9,45,138.2L45,138.2z M165.6,214.3
		c5.9-3.8-1.4-3.2-1.1,0.3L165.6,214.3L165.6,214.3z M85.9,164.1C85.7,161.5,82.8,164.3,85.9,164.1L85.9,164.1z M90.8,166.9
		C89.2,163.7,88.4,167.4,90.8,166.9L90.8,166.9z M175,216.8c7.5-5.4-4.6-1-1.6,1L175,216.8L175,216.8z M172.1,215.5
		C178.2,210.3,165.6,217.7,172.1,215.5L172.1,215.5z M186.8,225.3C190.9,222.5,181.8,224.4,186.8,225.3L186.8,225.3z M48.7,136.4
		c5.5,1.2,22,13.6,12.3,0.9c-5-1.5-2-13.7-7.1-11.5c3.4,5.7,2.8,8.1-4.4,4.5c-9-4.4-5.1,2.2-3.3,4C43.9,134.8,49.4,136.3,48.7,136.4
		L48.7,136.4z M23.6,116.5c1-4.1-9.1-22.5-4.8-9.2C20.4,110.1,20.2,115.4,23.6,116.5L23.6,116.5z M69.7,145
		C66.9,142.6,69.6,144.6,69.7,145L69.7,145z M76.7,146.6C76.7,142.3,69,144.8,76.7,146.6L76.7,146.6z M137.3,184.8
		C136.2,181.9,132.8,184.7,137.3,184.8L137.3,184.8z M140.3,186.9C139.8,185.3,138.6,187.3,140.3,186.9L140.3,186.9z M164.3,202.1
		C166.6,200.4,161.4,201.9,164.3,202.1L164.3,202.1z M36.2,119.7C42.8,117.2,29.1,117.9,36.2,119.7L36.2,119.7z M132,180.1
		C131.9,175.8,127.8,181.2,132,180.1L132,180.1z M33.5,113.7C37.8,112.2,29.6,112.7,33.5,113.7L33.5,113.7z M45.9,119.6
		C45.8,118.2,44.6,120.2,45.9,119.6L45.9,119.6z M196.2,211.8c5.5-1.1,17.9,2.8,19.9-1.4c-6.6-0.2-22.9-4.7-23.7,1.1l1.5,0.2
		L196.2,211.8L196.2,211.8z M49.8,120.6C49.9,116.3,46.4,120.5,49.8,120.6L49.8,120.6z M17.4,98.1C15.9,89.9,11.8,96.9,17.4,98.1
		L17.4,98.1z M25.1,100.1C25.2,97.4,18,97.7,25.1,100.1L25.1,100.1z M29.5,102.3C28.2,101.2,28.5,103.6,29.5,102.3L29.5,102.3z
		 M57.3,120.1C58.6,118.9,54.2,119.2,57.3,120.1L57.3,120.1z M26.6,97.4C25.8,91.1,17.6,96.4,26.6,97.4L26.6,97.4z M10.7,87.1
		C10.5,84.2,9.2,88.2,10.7,87.1L10.7,87.1z M13.1,85.3C12.7,81.9,11.1,85.7,13.1,85.3L13.1,85.3z M26.1,93.1c5.5-2.2-10-4.5-1.1-0.4
		L26.1,93.1L26.1,93.1z M200.3,200.7C203.9,197.5,195.9,199.7,200.3,200.7L200.3,200.7z M221.4,211.6
		C222.8,207.4,217.8,212.1,221.4,211.6L221.4,211.6z M27.5,86.3C28,82.2,23.1,87.1,27.5,86.3L27.5,86.3z M8.9,73.8
		c-1-5.7-0.9-15.7,8.7-12.3c-12.7,2.5,8.8,15.8,6.1,5.3c5.3,0.3,10.4-3.2,7.6,2c10.5-1.2,17.8-10.3,28-9c7.9-1.1,16.6-1.8,25.1-5
		c7-0.5,13.8-8.1,9.9-12.5c-9.6-0.8-19.6,0.4-30.2,2.5c-11.7,2.4-22.4,7.1-34.2,9c-11.5,1.6,2.3,4.3-1,4.9c-6,2.1,7.2,3.5-0.8,5.7
		c-4.9-0.9-10-2.6-7.9-7.8c-11,1.4-20.7,6-12,17.3L8.9,73.8L8.9,73.8z M35.5,60.3c2.6-9.5,13.9,7.8,4.2,1.3
		C38.6,60.7,36.7,60,35.5,60.3L35.5,60.3z M36,55.7C39.8,52.9,38,57.2,36,55.7L36,55.7z M40.8,55.7c0.3-4.4,10.9,2.3,1.7,1.6
		L40.8,55.7L40.8,55.7z M47.3,53.1C49.6,50.4,48,55.6,47.3,53.1L47.3,53.1z M48.9,52c3.9-4.7,22.3-3,8.9-0.5
		C54.2,48.8,51.4,53.2,48.9,52L48.9,52z M72.9,48.3C72.3,35.4,84.9,52.9,72.9,48.3L72.9,48.3z M79.8,48.3c2.5-6.5,9.7-2.6,1.2-1.3
		C81.1,47.7,80.7,50.3,79.8,48.3L79.8,48.3z M24.8,82.9C32.2,78.3,16.9,78.9,24.8,82.9L24.8,82.9z M30.3,84.4
		C32.9,81.7,24.6,83.3,30.3,84.4L30.3,84.4z M14.1,72.9C18.3,69.7,9,71.7,14.1,72.9L14.1,72.9z M233.8,210.4
		C233.9,206.6,230.6,212.1,233.8,210.4L233.8,210.4z M211.5,195.2C212.1,190.8,208.6,195.5,211.5,195.2L211.5,195.2z M240,211.9
		c5.9,0,18-1.9,5.1-1.8C243,210.3,233.2,210.3,240,211.9L240,211.9z M35.1,81.8c4.8-0.3,7.5-5.3-0.9-5c-13.1-1.4,11.6,4.5-1.7,2.8
		C30.7,80.7,35,82.1,35.1,81.8L35.1,81.8z M39.3,83.9C38.8,80.8,37.9,85.5,39.3,83.9L39.3,83.9z M44.4,70.5
		C46.5,67.9,41.5,69.8,44.4,70.5L44.4,70.5z M28.4,43.7c8.6-2.9,20.3-6.2,24.4,1.4c-4.1-5-1.7-9.9,2.2-2.6c5.5,7.3,8.3-3.3,4.7-5.8
		c4.1,5.1,8.7,7.5,2.7,0.3c6.5-7.8-13,1-17.5,0.9C42.8,39,22.8,43.1,28.4,43.7L28.4,43.7z M33.4,34.1c4.9-3.7,16.9,2.2,9.2-3.7
		C41.9,29.8,25.7,34.9,33.4,34.1L33.4,34.1z M51.3,34.8c5.7,0.1-2.5-7.7,4.4-4.1c-1.1-3.7-8-4.3-11.3-5.8
		C42.4,28.2,48.2,34.9,51.3,34.8L51.3,34.8z M36.5,18.6C38.5,15.9,33.1,20,36.5,18.6L36.5,18.6z M43.8,20.4c9.2-1.2-2.4-4-1.9-0.1
		L43.8,20.4L43.8,20.4z M30.2,9.7c-6.5-8.5,12.2,1.4,5.6-7.5C30.3-2.2,24.9,7.2,30.2,9.7L30.2,9.7z M113.7,54.7
		c3-5.3-12.3-7.1-2-1.9C112.6,53.1,112.4,55,113.7,54.7L113.7,54.7z"/>
	<g transform="translate(0.000000, 244.000000)">
		<path class="st0" d="M53.1,7.5c-0.7,2.6-1.1,7-1.2,13.1c0,1.2-0.5,1.8-1.6,1.8c-1.1,0-1.8-0.5-2.3-1.6c-1.2-2.8-2.3-4.8-3.3-5.9
			c-1.2-1.3-2.9-2.1-5-2.4C37.5,12.2,32,12,23.1,12c-2,0-3.3,0.2-4,0.6c-0.4,0.3-0.6,0.9-0.6,1.7v26.4c0,0.9,0.6,1.3,1.7,1.3
			c3.5,0,8.5-0.3,15-0.7c1.3-0.2,2.1-0.6,2.6-1.3c0.4-0.7,0.9-2.4,1.3-5.3c0.3-1.6,1.2-2.2,2.7-1.8c1.3,0.3,1.9,0.9,1.7,1.8
			c-1.1,5.3-1.4,12.2-1.1,20.6c0,1-0.6,1.6-1.9,1.6c-1.1,0.1-1.8-0.5-2-1.7c-1-4.9-2.9-7.5-5.6-7.8c-2.7-0.3-7.2-0.5-13.4-0.5
			c-0.7,0-1,0.3-1,0.8v26.2c0,1.9,0.7,3.3,2.2,4c1.1,0.6,3.6,1.1,7.3,1.6c1.9,0.2,2.7,1,2.5,2.5c-0.2,1.3-1.9,1.8-5.1,1.5
			c-9.2-0.7-16.8-0.7-22.8,0.1c-1.7,0.2-2.5-0.4-2.5-2c0-1,0.8-1.6,2.5-1.7c3.8-0.4,5.7-3.8,5.7-10V20c0-2.6-0.5-4.5-1.4-5.9
			c-0.9-1.4-2.6-2.6-5.1-3.8C0.3,9.7-0.3,8.7,0.1,7.5C0.3,6.8,0.6,6.3,1,6.3c0.4-0.1,1.4,0,3.1,0.2c2.5,0.4,8.2,0.6,17.3,0.6
			c10.7,0,20-0.2,27.8-0.7c2.6-0.2,3.9,0.1,3.9,0.6C53.2,7.2,53.1,7.3,53.1,7.5L53.1,7.5z"/>
		<path class="st0" d="M90.9,81.5c0,1.6-0.9,2.2-2.6,2c-5.4-0.5-12-0.4-19.9,0.2c-1.6,0.2-2.6,0.1-2.9-0.1c-0.4-0.2-0.6-0.9-0.6-1.9
			c0-0.9,1.1-1.7,3.2-2.4c2.1-0.6,3.2-2.6,3.2-5.7V20.9c0-3.1-0.5-5.5-1.4-6.9c-0.9-1.5-2.5-2.6-4.8-3.4c-1.2-0.4-1.8-1-1.8-1.8
			c0-1.2,0.9-2,2.6-2.6c2.6-0.9,5.4-2.2,8.2-4C76.4,0.7,77.9,0,78.5,0c1.4,0,2.2,1,2.2,3c0-0.2-0.1,1.8-0.2,5.8
			c-0.1,3.8-0.2,7.6-0.1,11.4l0.2,52.1c0,2.4,0.6,4.1,1.7,5.2c1.2,1.1,3.2,1.8,6,2.1C90,79.7,90.9,80.4,90.9,81.5L90.9,81.5z"/>
		<path class="st0" d="M143.6,78.1c0,0.8-1.5,2-4.5,3.7c-3,1.7-5.4,2.5-7.1,2.5c-1.5,0-2.9-0.7-4-2.2c-1.2-1.5-2-2.2-2.5-2.2
			c-0.3,0-2.2,0.8-5.5,2.4c-3.3,1.6-6.7,2.4-10.1,2.4c-3.2,0-5.9-0.9-8-2.8c-2.3-2.1-3.5-4.9-3.5-8.4c0-6.7,7.7-11.5,23.1-14.5
			c2.6-0.5,4-1.6,4-3.2l0.1-3.7c0.2-6.4-2.6-9.6-8.5-9.6c-1.7,0-3.3,1.5-4.8,4.5c-1.5,3-3.6,4.6-6.4,4.8c-3.2,0.3-4.8-1-4.8-4
			c0-1.9,2.4-4,7.1-6.5c5-2.6,9.8-3.9,14.3-3.9c7.9,0,11.8,3.8,11.7,11.3l-0.2,24c0,2.5,1,3.8,3.2,3.8c0.4,0,1.2-0.1,2.4-0.3
			c1.2-0.2,1.9-0.3,2.1-0.3C143.1,75.8,143.6,76.6,143.6,78.1L143.6,78.1z M125.7,64.8c0-1-0.2-1.6-0.7-1.9
			c-0.5-0.3-1.3-0.4-2.3-0.2c-9.4,1.7-14.1,4.7-14.1,9.2c0,4.5,2.4,6.7,7.3,6.7c1.9,0,3.9-0.4,6-1.1c2.4-0.9,3.6-1.9,3.6-3.1
			L125.7,64.8z"/>
		<path class="st0" d="M187,71.4c0,4.1-1.6,7.4-4.8,9.8c-3.2,2.4-7.5,3.6-13,3.6c-3.7,0-7.3-0.4-11-1.2c-3.1-0.7-5-1.3-5.5-1.9
			c-0.3-0.5-0.5-3.2-0.5-8c0-2.1,0.5-3.1,1.4-3.2c0.9-0.1,1.7,0.4,2.4,1.5c2.9,5.1,7.6,7.6,14.1,7.6c5.5,0,8.2-1.9,8.2-5.7
			c0-1.7-0.6-3.1-1.9-4.2c-1.4-1.3-4-2.8-7.9-4.5c-5.7-2.5-9.5-4.7-11.4-6.6c-2.1-2-3.1-4.7-3.1-8.2c0-4.2,1.6-7.5,4.8-9.8
			c3-2.3,7-3.4,12-3.4c3.1,0,6,0.3,8.6,0.8c2.8,0.5,4.3,1.1,4.4,1.9c0.3,2.2,1,5.3,1.9,9.4c0.1,0.5-0.4,0.9-1.6,1.2
			c-1.3,0.3-2.1,0.1-2.6-0.6c-3.1-5-7-7.5-11.7-7.5c-5.3,0-8,1.7-8,5.1c0,1.9,0.7,3.4,2.2,4.5c1.3,1,4.3,2.5,9,4.6
			c5,2.1,8.4,4.1,10.1,5.8C185.8,64.7,187,67.6,187,71.4L187,71.4z"/>
		<path class="st0" d="M255.6,81.6c0,1.4-0.9,2.1-2.7,2.2c-2.7,0-6.3,0.2-10.7,0.6c-2.2,0.4-3.7,0.2-4.7-0.8
			c-6.1-6.6-11.4-13.5-15.6-20.8c-0.3-0.6-0.8-0.9-1.3-0.9c-0.7,0-1.8,0.6-3.4,1.7c-1.8,1-2.7,2.4-2.7,4.3c0,1.3,0,3.2,0.1,5.7
			c0.1,2.5,0.7,4.1,1.9,4.9c0.8,0.5,2.7,1,5.7,1.3c1.8,0.2,2.7,0.9,2.7,2c0,0.9-0.1,1.4-0.4,1.7c-0.3,0.2-1.1,0.3-2.3,0.1
			c-3.9-0.3-10.5-0.2-19.7,0.6c-2.3,0.2-3.6-0.1-3.8-0.9c-0.1-0.3-0.1-0.7-0.1-1.2c0-1.2,1.2-2.1,3.6-2.7c2.1-0.5,3.2-3.1,3.2-7.5
			v-51c0-3.2-0.3-5.4-0.9-6.6c-0.9-1.6-2.6-2.8-5.4-3.7c-1.3-0.4-1.9-1-1.9-1.8c0-1.1,0.9-2,2.7-2.6c2.9-1,5.7-2.3,8.3-4
			c2.1-1.4,3.5-2.1,4-2.1c1.6,0,2.4,1,2.4,3c0-0.3,0,1.7-0.1,5.8c0,2.8-0.1,6.6-0.1,11.4l0.1,36.5c0,1,0.3,1.5,0.8,1.5
			c0.6,0,1.5-0.5,2.7-1.5c3.2-2.5,7.2-5.8,11.9-9.9c0.9-1,1.4-1.7,1.4-2.3c0-1-1.6-1.8-4.7-2.2c-1.4-0.2-2-0.9-1.9-2.3
			c0.1-1.4,0.8-1.9,2-1.7c2.8,0.4,6.9,0.6,12.2,0.6c3.7,0,7.4,0.1,11.1,0.1c1.2,0,1.8,0.8,1.8,2.2c0,1.3-1,2-2.9,2.2
			c-3,0.1-5.8,0.8-8.5,2c-3.7,1.7-7.6,4.6-11.8,8.8c-0.3,0.2-0.5,0.5-0.5,0.9c0,0.5,0.7,1.8,2,3.9c4.9,7.4,9.4,13,13.8,16.7
			c2.8,2.4,5.3,3.6,7.8,3.6c1.8,0,2.9,0.1,3.3,0.4C255.4,79.8,255.6,80.5,255.6,81.6L255.6,81.6z"/>
	</g>
</g>
</svg>
