<?xml version="1.0" encoding="utf-8"?>
<!-- Generator: Adobe Illustrator 22.0.1, SVG Export Plug-In . SVG Version: 6.00 Build 0)  -->
<svg version="1.1" id="Ebene_1" xmlns="http://www.w3.org/2000/svg" xmlns:xlink="http://www.w3.org/1999/xlink" x="0px" y="0px"
	 viewBox="0 0 980 954.6" style="enable-background:new 0 0 980 954.6;" xml:space="preserve">
<style type="text/css">
	.st0{fill:#00AE99;}
</style>
<g>
	<g transform="translate(0.000000,511.000000) scale(0.100000,-0.100000)">
		<path class="st0" d="M4453.4,5090.8c-619.6-51.6-1218.5-223.7-1769.3-499.1c-805.5-406.2-1404.4-946.6-1903.6-1707.3
			c-358-543.9-602.4-1160-722.9-1827.8C-21.5,626.3-18-220.5,61.1-637c330.5-1724.5,1483.6-3122.1,3077.3-3721
			c261.6-99.8,364.9-103.3,454.4-13.8c62,62,68.8,113.6,68.8,526.7v454.4h-437.2c-378.6,0-464.7,10.3-602.4,75.7
			c-271.9,123.9-454.4,323.5-626.5,681.6c-151.5,316.7-344.2,554.2-581.7,722.9s-51.6,299.5,285.7,203.1
			c148-44.8,230.6-96.4,378.6-251.3c103.3-106.7,244.4-268.5,309.8-361.4c75.7-106.7,189.3-206.5,309.8-275.4
			c165.2-92.9,220.3-106.7,447.5-103.3c141.1,3.5,316.7,27.6,389,51.6c120.5,44.8,137.7,72.3,206.5,275.4
			c41.3,120.5,110.2,268.5,154.9,323.6l79.2,99.8l-354.6,75.7c-636.8,134.3-998.2,320.1-1325.2,681.6
			c-337.3,368.3-526.7,943.1-526.7,1604c0,516.3,99.8,846.8,368.3,1211.7l117,161.8l-41.3,210c-72.3,375.2,27.5,1039.6,165.2,1091.2
			c144.6,55.1,729.7-158.3,1122.1-409.6l161.8-103.3l320.1,62c440.6,89.5,1394.1,92.9,1834.7,3.4l313.3-65.4l302.9,175.6
			c337.3,192.8,647.1,306.4,874.3,320.1l154.9,10.3l65.4-172.1c86.1-220.3,117.1-709.1,58.5-939.7l-41.3-175.6l154.9-234.1
			c275.4-419.9,316.7-571.4,316.7-1163.5C8012.4-38,8002-165.4,7936.6-396c-192.8-671.2-602.4-1108.4-1253-1345.9
			c-82.6-31-306.4-89.5-502.5-130.8l-354.6-75.7l75.7-92.9c41.3-55.1,106.7-179,144.6-275.4c68.8-161.8,75.7-261.6,86.1-1074
			c6.9-599,24.1-908.8,51.6-939.7c117.1-144.6,278.8-117.1,836.5,148c671.2,313.2,1363.1,881.2,1820.9,1493.9
			C9268.7-2124,9613-1325.4,9740.3-619.7c79.2,437.2,79.2,1215.1,0,1652.3c-199.6,1105-815.8,2182.4-1655.7,2888
			C7062.6,4787.9,5761.4,5207.8,4453.4,5090.8z"/>
	</g>
</g>
</svg>
