<?xml version="1.0" encoding="utf-8"?>
<!-- Generator: Adobe Illustrator 22.0.1, SVG Export Plug-In . SVG Version: 6.00 Build 0)  -->
<svg version="1.1" id="Ebene_1" xmlns:sketch="http://www.bohemiancoding.com/sketch/ns"
	 xmlns="http://www.w3.org/2000/svg" xmlns:xlink="http://www.w3.org/1999/xlink" x="0px" y="0px" viewBox="0 0 89 39.6"
	 style="enable-background:new 0 0 89 39.6;" xml:space="preserve">
<style type="text/css">
	.st0{fill:#FFFFFF;}
</style>
<title>Group</title>
<desc>Created with Sketch.</desc>
<g sketch:type="MSPage">
	<g sketch:type="MSLayerGroup">
		<path sketch:type="MSShapeGroup" class="st0" d="M22.4,29.1c-1.6,2.3-4,3.7-6.2,3.7c-0.9,0-1.7-0.2-2.6-0.6
			c-2.9-1.5-5.6-4.9-7.4-9.3c-1.9-4.7-3-10.1-3-14.8c2.2,0.7,5.9,2.2,7.1,2.8c3,1.5,6,3,8.8,4.6c3.1,1.9,4.9,3.4,5.2,6.2
			C24.6,24.2,23.9,27,22.4,29.1L22.4,29.1z M20.6,12.8c-2.9-1.7-5.9-3.2-9-4.8c-0.8-0.4-7.4-3.3-9.8-3.4C1,4.7,0.3,5.3,0.3,6.1
			C0,11.7,1.1,18.2,3.5,23.9c2,5,5.3,9,8.8,10.8c1.2,0.6,2.6,1,3.9,1h0c3.2,0,6.4-1.8,8.6-4.9c1.9-2.7,2.8-6.1,2.4-9.6
			C26.7,16.8,23.7,14.7,20.6,12.8L20.6,12.8z"/>
		<path sketch:type="MSShapeGroup" class="st0" d="M20.7,20.1c-0.8,0.1-1.4,0.8-1.3,1.6c0.1,1.3-0.2,2.8-0.9,3.8
			c-1,1.3-2.6,2.3-4.1,1.5c-0.7-0.4-1.6-0.1-2,0.6c-0.4,0.7-0.1,1.6,0.6,2c0.8,0.4,1.6,0.6,2.5,0.6c2,0,4-1.1,5.4-3
			c1.2-1.6,1.7-3.7,1.5-5.8C22.3,20.6,21.5,20,20.7,20.1"/>
		<path sketch:type="MSShapeGroup" class="st0" d="M80.7,23.8c-4.7,6.6-12.2,9.6-14.6,10.6l-0.4,0.2c-3.2,1.3-7.2,2.1-11.4,2.1
			c-3.9,0-7.4-0.6-9.7-1.7c-5.9-2.8-9.7-8.5-9.6-14.6c0-0.1,0-0.2,0.2-0.3c4-2.8,9.3-4.4,13.9-5.9c6.6-2.1,13-3.3,18.9-3.8
			c1.4-0.1,2.7-0.2,4-0.2c2.2,0,4.2,0.2,6,0.5c3.1,0.6,6.2,1.5,6.4,3.7C84.6,17.8,82.4,21.4,80.7,23.8L80.7,23.8z M78.5,7.8
			c-3.2-0.6-6.6-0.7-10.8-0.4c-6.1,0.5-12.6,1.8-19.5,3.9c-4.8,1.5-10.3,3.2-14.7,6.3c-0.9,0.7-1.5,1.6-1.5,2.7
			c-0.1,7.2,4.3,14,11.2,17.3c2.7,1.3,6.7,2,11,2c4.6,0,9-0.8,12.5-2.3l0.4-0.2c2.6-1.1,10.7-4.4,15.9-11.6c2-2.8,4.6-7,4.2-11.4
			C86.9,9.4,81,8.3,78.5,7.8L78.5,7.8z"/>
		<path sketch:type="MSShapeGroup" class="st0" d="M79.6,12.9c-0.8,0.1-1.4,0.8-1.3,1.6c0.3,2.9-1.9,6-3.6,8.1
			c-4.4,5.5-11.5,7.8-14.2,8.7c-0.4,0.1-0.6,0.2-0.9,0.3c-0.8,0.3-1.2,1.1-0.9,1.9c0.2,0.6,0.8,1,1.4,1c0.2,0,0.3,0,0.5-0.1
			c0.2-0.1,0.5-0.2,0.8-0.3c2.9-1,10.6-3.5,15.5-9.6c2-2.5,4.6-6.2,4.3-10.2C81.2,13.4,80.5,12.8,79.6,12.9"/>
		<path sketch:type="MSShapeGroup" class="st0" d="M88.3,6.5C88.1,6.4,88,6.4,88,6.3l-0.1-0.1c-6.1-3.8-13.7-5.1-22.4-3.7
			c-9.2,1.4-21.4,5.2-27.3,7c-1.1,0.3-2,0.6-2.6,0.8c-3.1,0.9-7.2,1.8-10.7-0.1c-0.3-0.2-0.7-0.4-1.3-0.7C20.8,8,15.5,5.1,10.9,3.2
			C8.1,2,5,0.8,1.8,0C1-0.1,0.2,0.3,0,1.1c-0.2,0.8,0.3,1.6,1.1,1.8c3,0.7,5.9,1.9,8.7,3c4.4,1.8,9.8,4.8,12.4,6.2
			c0.5,0.3,1,0.5,1.3,0.7c2,1.1,4.1,1.5,6.2,1.5c2.4,0,4.8-0.6,6.8-1.2c0.7-0.2,1.6-0.5,2.7-0.8c5.8-1.8,17.8-5.6,26.8-6.9
			c8-1.2,14.9-0.1,20.4,3.3l0.2,0.1c0,0,0.1,0,0.2,0.1c0.7,0.4,1.6,0.2,2-0.5C89.2,7.9,89,7,88.3,6.5"/>
	</g>
</g>
</svg>
